<?xml version="1.0" encoding="iso-8859-1"?>
<!-- Generator: Adobe Illustrator 19.0.0, SVG Export Plug-In . SVG Version: 6.00 Build 0)  -->
<svg version="1.1" id="Capa_1" xmlns="http://www.w3.org/2000/svg" xmlns:xlink="http://www.w3.org/1999/xlink" x="0px" y="0px"
	 viewBox="0 0 512 512" style="enable-background:new 0 0 512 512;" xml:space="preserve">
<path style="fill:#FFD32A;" d="M256,512c-68.38,0-132.667-26.629-181.02-74.98C26.629,388.667,0,324.38,0,256
	S26.629,123.333,74.98,74.98C123.333,26.629,187.62,0,256,0s132.667,26.629,181.02,74.98C485.371,123.333,512,187.62,512,256
	s-26.629,132.667-74.98,181.02C388.667,485.371,324.38,512,256,512z"/>
<path style="fill:#FFAB15;" d="M437.02,74.98C388.667,26.629,324.38,0,256,0v512c68.38,0,132.667-26.629,181.02-74.98
	C485.371,388.667,512,324.38,512,256S485.371,123.333,437.02,74.98z"/>
<path style="fill:#FFE871;" d="M256,472c-119.103,0-216-96.897-216-216S136.897,40,256,40s216,96.897,216,216S375.103,472,256,472z"
	/>
<g>
	<path style="fill:#FFD32A;" d="M256,40v432c119.103,0,216-96.897,216-216S375.103,40,256,40z"/>
	<path style="fill:#FFD32A;" d="M296.077,253.548l-70.668-23.557C216.791,227.119,211,219.085,211,210c0-16.262,20.607-30,45-30
		s45,13.738,45,30h30c0-16.612-8.593-32.584-23.574-43.82c-10.232-7.675-22.823-12.802-36.426-14.983V120h-30v31.198
		c-13.603,2.181-26.194,7.308-36.426,14.983C189.592,177.416,181,193.388,181,210c0,22.019,14.034,41.49,34.922,48.452
		l70.669,23.557C295.209,284.881,301,292.915,301,302c0,16.262-20.607,30-45,30s-45-13.738-45-30h-30
		c0,16.612,8.592,32.584,23.574,43.82c10.233,7.675,22.824,12.802,36.426,14.983V392h30v-31.198
		c13.603-2.181,26.194-7.308,36.426-14.983C322.407,334.584,331,318.612,331,302C331,279.981,316.966,260.51,296.077,253.548z"/>
</g>
<g>
	<path style="fill:#FFAB15;" d="M296.077,253.548L256,240.189v31.623l30.591,10.197C295.209,284.881,301,292.915,301,302
		c0,16.262-20.607,30-45,30v60h15v-31.198c13.603-2.181,26.194-7.308,36.426-14.983C322.407,334.584,331,318.612,331,302
		C331,279.981,316.966,260.51,296.077,253.548z"/>
	<path style="fill:#FFAB15;" d="M256,120v60c24.393,0,45,13.738,45,30h30c0-16.612-8.593-32.584-23.574-43.82
		c-10.232-7.675-22.823-12.802-36.426-14.983V120H256z"/>
</g>
<g>
</g>
<g>
</g>
<g>
</g>
<g>
</g>
<g>
</g>
<g>
</g>
<g>
</g>
<g>
</g>
<g>
</g>
<g>
</g>
<g>
</g>
<g>
</g>
<g>
</g>
<g>
</g>
<g>
</g>
</svg>
